<svg width="60" height="60" viewBox="0 0 60 60" fill="none" xmlns="http://www.w3.org/2000/svg">
<path d="M30 55C16.1992 54.9848 5.01516 43.8008 5 30V29.5C5.27483 15.7613 16.5865 4.81987 30.3267 5.00218C44.0669 5.18449 55.0843 16.4222 54.9945 30.1633C54.9047 43.9045 43.7414 54.9972 30 55Z" fill="white"/>
<path d="M30 55C16.1992 54.9848 5.01516 43.8008 5 30V29.5C5.27483 15.7613 16.5865 4.81987 30.3267 5.00218C44.0669 5.18449 55.0843 16.4222 54.9945 30.1633C54.9047 43.9045 43.7414 54.9972 30 55ZM25 18.75V41.25L40 30L25 18.75Z" fill="#E96E2D"/>
</svg>
